<svg version="1.1" id="Layer_1" xmlns="http://www.w3.org/2000/svg" xmlns:xlink="http://www.w3.org/1999/xlink" x="0px" y="0px"
	 width="100%" viewBox="0 0 512 512" enable-background="new 0 0 512 512" xml:space="preserve">
	   <!-- <rect x="16" y="16" width="480" height="480" rx="64" fill="#ffffff"/> -->

<path fill="#000000" opacity="1.000000" stroke="none"  stroke-width="4"
	d="
M160.289368,150.604233 
	C184.497375,163.623276 196.983826,184.709930 203.244781,210.151459 
	C208.222015,230.376541 208.516525,250.941864 207.617935,271.648224 
	C207.015610,285.527100 205.367386,299.144226 201.368896,312.442657 
	C190.713943,347.879700 164.343796,370.240692 127.040710,372.501282 
	C109.955711,373.536621 93.379547,372.250763 77.685699,365.276611 
	C54.662502,355.045441 41.049435,336.519928 33.842216,313.011414 
	C26.567608,289.283112 26.228386,264.874237 27.451733,240.316116 
	C28.245441,224.382751 30.853613,208.859818 36.870258,194.100845 
	C48.987480,164.376984 70.440369,146.339905 102.907265,142.547913 
	C122.604675,140.247360 141.797943,141.583755 160.289368,150.604233 
M57.395054,263.134460 
	C58.531189,274.535797 58.645260,286.045929 61.331047,297.279755 
	C64.674973,311.266357 69.389984,324.583405 81.115685,333.897369 
	C96.354912,346.002258 114.008987,347.461548 132.309692,343.996826 
	C153.889755,339.911163 165.754105,325.514008 171.706635,305.314178 
	C175.401428,292.775940 176.646622,279.899689 177.155487,266.891815 
	C178.006287,245.143158 176.951172,223.619675 169.655960,202.869049 
	C165.479950,190.990768 158.121643,181.606918 146.833755,175.524429 
	C136.009567,169.691803 124.365959,168.878494 112.400414,169.243698 
	C89.911316,169.930145 72.802338,182.379700 65.153534,203.622391 
	C58.317150,222.608765 57.756817,242.379852 57.395054,263.134460 
z"/>
<path fill="#000000" opacity="1.000000" stroke="none"  stroke-width="4"
	d="
M336.814392,335.131836 
	C329.891571,325.108032 323.207611,315.355133 316.436218,305.663239 
	C313.246033,301.097107 311.335968,301.146301 308.304749,305.717163 
	C295.513855,325.004761 282.694122,344.273590 270.013763,363.633667 
	C268.267365,366.300018 266.359253,367.496429 263.129944,367.422668 
	C254.836563,367.233337 246.535980,367.359436 238.494461,367.359436 
	C237.271194,365.100159 238.677841,364.090424 239.470505,362.921631 
	C255.824005,338.807495 272.095154,314.636353 288.649597,290.660858 
	C291.085724,287.132599 290.805634,284.858154 288.577362,281.510315 
	C273.538055,258.914917 258.696503,236.187744 243.825287,213.480713 
	C242.568787,211.562164 240.908203,209.832169 240.470444,207.454865 
	C241.616272,205.633759 243.423584,206.091553 244.999344,206.079651 
	C252.327972,206.024277 259.662354,206.212921 266.984100,205.981033 
	C270.828003,205.859299 273.089569,207.495316 275.054901,210.603699 
	C285.377289,226.929749 295.839050,243.167725 306.260864,259.430878 
	C307.158936,260.832367 308.071930,262.228729 309.058502,263.568176 
	C312.137177,267.748077 313.542358,267.788177 316.319672,263.304443 
	C322.806763,252.831543 329.132904,242.258957 335.526062,231.727829 
	C339.845795,224.612137 344.196503,217.514999 348.473663,210.373810 
	C349.816406,208.131989 351.321564,206.183044 354.194733,206.172775 
	C362.186218,206.144241 370.178131,206.160965 378.169312,206.226517 
	C378.932404,206.232788 379.691681,206.706726 380.306610,206.914246 
	C380.928650,208.935059 379.620605,209.974747 378.854858,211.184158 
	C364.604828,233.689392 350.411621,256.231384 335.996185,278.630310 
	C333.838196,281.983398 333.976562,284.171997 336.277893,287.421204 
	C353.506775,311.745941 370.511902,336.229309 387.545898,360.691681 
	C388.753510,362.425903 390.368042,363.989777 390.666656,366.306427 
	C389.596405,367.874420 387.964600,367.287689 386.581970,367.319397 
	C382.752899,367.407227 378.832855,366.826050 375.105682,367.448730 
	C363.302277,369.420563 355.377167,365.189972 349.921265,354.412323 
	C346.493896,347.641724 341.376587,341.726624 336.814392,335.131836 
z"/>
<path fill="#000000" opacity="1.000000" stroke="none"  stroke-width="4"
	d="
M457.657532,267.999939 
	C457.656647,238.501694 457.657806,209.503494 457.654175,180.505280 
	C457.653290,173.289322 457.646179,173.280579 450.202423,173.275543 
	C438.369812,173.267532 426.533081,173.092102 414.706635,173.361298 
	C410.014709,173.468109 408.498291,171.749222 408.752197,167.248825 
	C409.042725,162.098541 408.903137,156.918549 408.808716,151.754059 
	C408.754242,148.773743 410.015289,147.617905 412.985992,147.625793 
	C436.484283,147.688232 459.982788,147.685333 483.481171,147.647873 
	C486.204681,147.643539 487.518433,148.702179 487.335449,151.484787 
	C487.270020,152.479797 487.347473,153.483734 487.347473,154.483597 
	C487.348328,223.146027 487.349823,291.808441 487.344849,360.470886 
	C487.344360,367.340607 487.325806,367.349121 480.551514,367.362854 
	C474.885223,367.374329 469.204346,367.112213 463.557159,367.440094 
	C458.972504,367.706299 457.546753,366.084778 457.571594,361.493744 
	C457.739258,330.496552 457.658295,299.498047 457.657532,267.999939 
z"/>
</svg>